# xmcd
#
# Track frame offsets:
#      150
#      11570
#      24250
#      36420
#      52540
#      71397
#      83265
#      96365
#      109140
#      120362
# 
# Disc length: 1775 seconds
#
# Revision: 6
# Processed by: cddbd v1.4PL0 Copyright (c) Steve Scherf et al.
#
# Submitted via: FreeRIP 1.21
#
DISCID=6706ed0a
DTITLE=Ray Coniff - 21 Grandes Sucessos
DYEAR=1900
DGENRE=Classical
TTITLE0=Red Roses For A Blue Lady
TTITLE1=It´s Impossible
TTITLE2=The First Time Ever I Saw Your Face
TTITLE3=Seasons In The Sun
TTITLE4=Memory
TTITLE5=The Way We Where
TTITLE6=Rapisody In Blue
TTITLE7=Cabaret
TTITLE8='S Wonderful
TTITLE9=Thew Shadow Of Your Smile
EXTD=
EXTT0=
EXTT1=
EXTT2=
EXTT3=
EXTT4=
EXTT5=
EXTT6=
EXTT7=
EXTT8=
EXTT9=
PLAYORDER=
